<?xml version="1.0" encoding="utf-8"?>
<!-- Generator: Adobe Illustrator 23.0.1, SVG Export Plug-In . SVG Version: 6.00 Build 0)  -->
<svg version="1.1" id="Layer_1" xmlns="http://www.w3.org/2000/svg" xmlns:xlink="http://www.w3.org/1999/xlink" x="0px" y="0px"
	 viewBox="0 0 100 100" style="enable-background:new 0 0 100 100;" xml:space="preserve">
<path d="M95,13v74c0,4.41-3.59,8-8,8H33c-4.41,0-8-3.59-8-8V60c0-1.1,0.9-2,2-2s2,0.9,2,2v27c0,2.21,1.79,4,4,4h54
	c2.21,0,4-1.79,4-4V13c0-2.21-1.79-4-4-4H33c-2.21,0-4,1.79-4,4v27c0,1.1-0.9,2-2,2s-2-0.9-2-2V13c0-4.41,3.59-8,8-8h54
	C91.41,5,95,8.59,95,13z M69.59,60.59c-0.78,0.78-0.78,2.05,0,2.83C69.98,63.8,70.49,64,71,64s1.02-0.2,1.41-0.59l12-12
	c0.09-0.09,0.18-0.2,0.25-0.31c0.03-0.05,0.05-0.1,0.08-0.15c0.03-0.06,0.07-0.12,0.1-0.19c0.03-0.07,0.04-0.13,0.06-0.2
	c0.02-0.06,0.04-0.11,0.05-0.17c0.05-0.26,0.05-0.52,0-0.78c-0.01-0.06-0.03-0.11-0.05-0.17c-0.02-0.07-0.04-0.14-0.06-0.2
	c-0.03-0.07-0.07-0.13-0.1-0.19c-0.03-0.05-0.05-0.1-0.08-0.15c-0.07-0.11-0.16-0.21-0.25-0.31l-12-12c-0.78-0.78-2.05-0.78-2.83,0
	c-0.78,0.78-0.78,2.05,0,2.83L78.17,48H7c-1.1,0-2,0.9-2,2s0.9,2,2,2h71.17L69.59,60.59z"/>
</svg>
